<mxfile host="app.diagrams.net" agent="Mozilla/5.0 (Macintosh; Intel Mac OS X 10_15_7) AppleWebKit/537.36 (KHTML, like Gecko) Chrome/128.0.0.0 Safari/537.36 OPR/114.0.0.0" version="24.8.2">
  <diagram name="Page-1" id="xH9LVwqrZOaj5JWPEeEO">
    <mxGraphModel dx="2299" dy="589" grid="1" gridSize="10" guides="1" tooltips="1" connect="1" arrows="1" fold="1" page="1" pageScale="1" pageWidth="1169" pageHeight="827" math="0" shadow="0">
      <root>
        <mxCell id="0" />
        <mxCell id="1" parent="0" />
        <mxCell id="4BoSZYrvSGnBMVPtdNcZ-73" value="" style="rounded=1;whiteSpace=wrap;html=1;fillColor=#fff2cc;strokeColor=#d6b656;" vertex="1" parent="1">
          <mxGeometry x="-660" y="340" width="410" height="60" as="geometry" />
        </mxCell>
        <mxCell id="uzaMz66EhPlOru-ss-v8-17" value="KVSearch Cluter" style="text;html=1;align=center;verticalAlign=middle;whiteSpace=wrap;rounded=0;fontSize=16;sketch=1;curveFitting=1;jiggle=2;" parent="1" vertex="1">
          <mxGeometry x="-1025.33" y="249.99999999999997" width="140" height="30" as="geometry" />
        </mxCell>
        <mxCell id="4BoSZYrvSGnBMVPtdNcZ-32" value="" style="group" vertex="1" connectable="0" parent="1">
          <mxGeometry x="-1030" y="219.99999999999997" width="165.32" height="146" as="geometry" />
        </mxCell>
        <mxCell id="4BoSZYrvSGnBMVPtdNcZ-24" value="" style="rounded=1;whiteSpace=wrap;html=1;dashed=1;" vertex="1" parent="4BoSZYrvSGnBMVPtdNcZ-32">
          <mxGeometry x="17.319999999999993" y="25" width="148" height="90" as="geometry" />
        </mxCell>
        <mxCell id="4BoSZYrvSGnBMVPtdNcZ-22" value="dc1p-kv-monitoring-observer-02" style="shape=image;verticalLabelPosition=bottom;labelBackgroundColor=default;verticalAlign=top;aspect=fixed;imageAspect=0;image=https://cdn-icons-png.flaticon.com/512/969/969438.png;" vertex="1" parent="4BoSZYrvSGnBMVPtdNcZ-32">
          <mxGeometry x="61.31999999999999" y="86" width="60" height="60" as="geometry" />
        </mxCell>
        <mxCell id="4BoSZYrvSGnBMVPtdNcZ-23" value="" style="shape=image;verticalLabelPosition=bottom;labelBackgroundColor=default;verticalAlign=top;aspect=fixed;imageAspect=0;image=https://raw.githubusercontent.com/github/explore/92ad94b82139838b94e2fa7ffc8b461315d6a452/topics/docker-compose/docker-compose.png;" vertex="1" parent="4BoSZYrvSGnBMVPtdNcZ-32">
          <mxGeometry width="50" height="50" as="geometry" />
        </mxCell>
        <mxCell id="4BoSZYrvSGnBMVPtdNcZ-25" value="" style="shape=image;verticalLabelPosition=bottom;labelBackgroundColor=default;verticalAlign=top;aspect=fixed;imageAspect=0;image=https://seeklogo.com/images/E/elasticsearch-logo-C75C4578EC-seeklogo.com.png;sketch=1;curveFitting=1;jiggle=2;" vertex="1" parent="4BoSZYrvSGnBMVPtdNcZ-32">
          <mxGeometry x="50" y="40" width="27" height="30" as="geometry" />
        </mxCell>
        <mxCell id="4BoSZYrvSGnBMVPtdNcZ-26" value="" style="shape=image;verticalLabelPosition=bottom;labelBackgroundColor=default;verticalAlign=top;aspect=fixed;imageAspect=0;image=https://cdn.worldvectorlogo.com/logos/elastic-kibana.svg;clipPath=inset(12% 20.67% 13.67% 20.33%);sketch=1;curveFitting=1;jiggle=2;" vertex="1" parent="4BoSZYrvSGnBMVPtdNcZ-32">
          <mxGeometry x="114.19999999999999" y="38.75" width="25.8" height="32.5" as="geometry" />
        </mxCell>
        <mxCell id="4BoSZYrvSGnBMVPtdNcZ-7" value="" style="rounded=1;whiteSpace=wrap;html=1;dashed=1;fillColor=#dae8fc;strokeColor=#6c8ebf;" vertex="1" parent="1">
          <mxGeometry x="-1049.42" y="90" width="261.99" height="90" as="geometry" />
        </mxCell>
        <mxCell id="4BoSZYrvSGnBMVPtdNcZ-1" value="" style="shape=image;verticalLabelPosition=bottom;labelBackgroundColor=default;verticalAlign=top;aspect=fixed;imageAspect=0;image=https://cdn-icons-png.flaticon.com/512/969/969438.png;" vertex="1" parent="1">
          <mxGeometry x="-1020.0999999999999" y="53.839999999999975" width="60" height="60" as="geometry" />
        </mxCell>
        <mxCell id="4BoSZYrvSGnBMVPtdNcZ-2" value="" style="shape=image;verticalLabelPosition=bottom;labelBackgroundColor=default;verticalAlign=top;aspect=fixed;imageAspect=0;image=https://cdn-icons-png.flaticon.com/512/969/969438.png;" vertex="1" parent="1">
          <mxGeometry x="-860.1" y="53.839999999999975" width="60" height="60" as="geometry" />
        </mxCell>
        <mxCell id="4BoSZYrvSGnBMVPtdNcZ-3" value="" style="shape=image;verticalLabelPosition=bottom;labelBackgroundColor=default;verticalAlign=top;aspect=fixed;imageAspect=0;image=https://cdn-icons-png.flaticon.com/512/969/969438.png;" vertex="1" parent="1">
          <mxGeometry x="-941.0899999999999" y="53.839999999999975" width="60" height="60" as="geometry" />
        </mxCell>
        <mxCell id="4BoSZYrvSGnBMVPtdNcZ-8" value="" style="shape=image;verticalLabelPosition=bottom;labelBackgroundColor=default;verticalAlign=top;aspect=fixed;imageAspect=0;image=https://habrastorage.org/files/387/a02/5c6/387a025c6d7a45e6931da923105316df.png;sketch=1;curveFitting=1;jiggle=2;" vertex="1" parent="1">
          <mxGeometry x="-1055.2299999999998" y="149.49999999999997" width="39.9" height="40" as="geometry" />
        </mxCell>
        <mxCell id="4BoSZYrvSGnBMVPtdNcZ-9" value="" style="shape=image;verticalLabelPosition=bottom;labelBackgroundColor=default;verticalAlign=top;aspect=fixed;imageAspect=0;image=https://seeklogo.com/images/E/elasticsearch-logo-C75C4578EC-seeklogo.com.png;sketch=1;curveFitting=1;jiggle=2;" vertex="1" parent="1">
          <mxGeometry x="-1011.5399999999997" y="120.99999999999997" width="26.1" height="29" as="geometry" />
        </mxCell>
        <mxCell id="4BoSZYrvSGnBMVPtdNcZ-11" value="" style="shape=image;verticalLabelPosition=bottom;labelBackgroundColor=default;verticalAlign=top;aspect=fixed;imageAspect=0;image=https://static-00.iconduck.com/assets.00/logstash-icon-428x512-vaooickw.png;" vertex="1" parent="1">
          <mxGeometry x="-889.58" y="120.49999999999997" width="25.08" height="30" as="geometry" />
        </mxCell>
        <mxCell id="4BoSZYrvSGnBMVPtdNcZ-12" value="" style="shape=image;verticalLabelPosition=bottom;labelBackgroundColor=default;verticalAlign=top;aspect=fixed;imageAspect=0;image=https://static-00.iconduck.com/assets.00/logstash-icon-428x512-vaooickw.png;" vertex="1" parent="1">
          <mxGeometry x="-835.7200000000001" y="119.99999999999997" width="25.08" height="30" as="geometry" />
        </mxCell>
        <mxCell id="4BoSZYrvSGnBMVPtdNcZ-13" value="" style="shape=image;verticalLabelPosition=bottom;labelBackgroundColor=default;verticalAlign=top;aspect=fixed;imageAspect=0;image=https://static-00.iconduck.com/assets.00/logstash-icon-428x512-vaooickw.png;" vertex="1" parent="1">
          <mxGeometry x="-857.38" y="142.16" width="27.45" height="32.84" as="geometry" />
        </mxCell>
        <mxCell id="4BoSZYrvSGnBMVPtdNcZ-15" value="" style="shape=image;verticalLabelPosition=bottom;labelBackgroundColor=default;verticalAlign=top;aspect=fixed;imageAspect=0;image=https://seeklogo.com/images/E/elasticsearch-logo-C75C4578EC-seeklogo.com.png;sketch=1;curveFitting=1;jiggle=2;" vertex="1" parent="1">
          <mxGeometry x="-965.5299999999997" y="120.49999999999997" width="26.1" height="29" as="geometry" />
        </mxCell>
        <mxCell id="4BoSZYrvSGnBMVPtdNcZ-16" value="" style="shape=image;verticalLabelPosition=bottom;labelBackgroundColor=default;verticalAlign=top;aspect=fixed;imageAspect=0;image=https://seeklogo.com/images/E/elasticsearch-logo-C75C4578EC-seeklogo.com.png;sketch=1;curveFitting=1;jiggle=2;" vertex="1" parent="1">
          <mxGeometry x="-988.4399999999998" y="144.99999999999997" width="27" height="30" as="geometry" />
        </mxCell>
        <mxCell id="4BoSZYrvSGnBMVPtdNcZ-17" value="&lt;font style=&quot;font-size: 12px;&quot;&gt;KVSearch Cluter&lt;/font&gt;" style="text;html=1;align=center;verticalAlign=middle;whiteSpace=wrap;rounded=0;fontSize=13;sketch=1;curveFitting=1;jiggle=2;" vertex="1" parent="1">
          <mxGeometry x="-981.0899999999999" y="181.83999999999997" width="140" height="21" as="geometry" />
        </mxCell>
        <mxCell id="4BoSZYrvSGnBMVPtdNcZ-19" value="" style="shape=image;verticalLabelPosition=bottom;labelBackgroundColor=default;verticalAlign=top;aspect=fixed;imageAspect=0;image=https://cdn.worldvectorlogo.com/logos/elastic-beats.svg;clipPath=inset(11% 20.67% 9% 17.33%);" vertex="1" parent="1">
          <mxGeometry x="-888.0400000000001" y="52.709999999999866" width="18.98" height="24.49" as="geometry" />
        </mxCell>
        <mxCell id="4BoSZYrvSGnBMVPtdNcZ-20" value="" style="shape=image;verticalLabelPosition=bottom;labelBackgroundColor=default;verticalAlign=top;aspect=fixed;imageAspect=0;image=https://cdn.worldvectorlogo.com/logos/elastic-beats.svg;clipPath=inset(11% 20.67% 9% 17.33%);" vertex="1" parent="1">
          <mxGeometry x="-969" y="53.54000000000002" width="19.03" height="24.56" as="geometry" />
        </mxCell>
        <mxCell id="4BoSZYrvSGnBMVPtdNcZ-21" value="" style="shape=image;verticalLabelPosition=bottom;labelBackgroundColor=default;verticalAlign=top;aspect=fixed;imageAspect=0;image=https://cdn.worldvectorlogo.com/logos/elastic-beats.svg;clipPath=inset(11% 20.67% 9% 17.33%);" vertex="1" parent="1">
          <mxGeometry x="-807.33" y="52.709999999999866" width="19.9" height="25.67" as="geometry" />
        </mxCell>
        <mxCell id="4BoSZYrvSGnBMVPtdNcZ-40" value="dc1p-kv-monitoring-lb-01" style="shape=image;verticalLabelPosition=bottom;labelBackgroundColor=default;verticalAlign=top;aspect=fixed;imageAspect=0;image=https://media.lordicon.com/icons/wired/outline/1309-load-balancer.svg;" vertex="1" parent="1">
          <mxGeometry x="-610" y="181.83999999999997" width="57" height="57" as="geometry" />
        </mxCell>
        <mxCell id="4BoSZYrvSGnBMVPtdNcZ-41" value="" style="curved=1;endArrow=classic;html=1;rounded=0;fontSize=12;startSize=8;endSize=8;exitX=1;exitY=0.75;exitDx=0;exitDy=0;entryX=0;entryY=0;entryDx=0;entryDy=0;dashed=1;" edge="1" parent="1" source="4BoSZYrvSGnBMVPtdNcZ-21" target="4BoSZYrvSGnBMVPtdNcZ-40">
          <mxGeometry width="50" height="50" relative="1" as="geometry">
            <mxPoint x="-790.1999999999998" y="60.084999999999866" as="sourcePoint" />
            <mxPoint x="-610" y="204.87999999999994" as="targetPoint" />
            <Array as="points">
              <mxPoint x="-700" y="153.37999999999994" />
            </Array>
          </mxGeometry>
        </mxCell>
        <mxCell id="4BoSZYrvSGnBMVPtdNcZ-42" value="metricbeat/filebeat" style="edgeLabel;html=1;align=center;verticalAlign=middle;resizable=0;points=[];fontSize=12;rotation=30;" vertex="1" connectable="0" parent="4BoSZYrvSGnBMVPtdNcZ-41">
          <mxGeometry x="-0.3425" y="-15" relative="1" as="geometry">
            <mxPoint x="26" y="8" as="offset" />
          </mxGeometry>
        </mxCell>
        <mxCell id="4BoSZYrvSGnBMVPtdNcZ-43" value="" style="curved=1;endArrow=classic;html=1;rounded=0;fontSize=12;startSize=8;endSize=8;exitX=1;exitY=0.5;exitDx=0;exitDy=0;dashed=1;entryX=0;entryY=0.5;entryDx=0;entryDy=0;" edge="1" parent="1" source="4BoSZYrvSGnBMVPtdNcZ-24" target="4BoSZYrvSGnBMVPtdNcZ-40">
          <mxGeometry x="0.059" y="1" width="50" height="50" relative="1" as="geometry">
            <mxPoint x="-550" y="178.83999999999997" as="sourcePoint" />
            <mxPoint x="-500" y="128.83999999999997" as="targetPoint" />
            <Array as="points">
              <mxPoint x="-720" y="308.84" />
            </Array>
            <mxPoint as="offset" />
          </mxGeometry>
        </mxCell>
        <mxCell id="4BoSZYrvSGnBMVPtdNcZ-57" value="elasticserach/kibana" style="edgeLabel;html=1;align=center;verticalAlign=middle;resizable=0;points=[];fontSize=12;rotation=-15;" vertex="1" connectable="0" parent="4BoSZYrvSGnBMVPtdNcZ-43">
          <mxGeometry x="0.0721" y="15" relative="1" as="geometry">
            <mxPoint x="-12" y="5" as="offset" />
          </mxGeometry>
        </mxCell>
        <mxCell id="4BoSZYrvSGnBMVPtdNcZ-44" value="" style="shape=image;verticalLabelPosition=bottom;labelBackgroundColor=default;verticalAlign=top;aspect=fixed;imageAspect=0;image=https://cdn-icons-png.flaticon.com/512/2133/2133120.png;sketch=1;curveFitting=1;jiggle=2;" vertex="1" parent="1">
          <mxGeometry x="-230" y="258.84" width="73" height="73" as="geometry" />
        </mxCell>
        <mxCell id="4BoSZYrvSGnBMVPtdNcZ-50" style="edgeStyle=none;curved=1;rounded=0;orthogonalLoop=1;jettySize=auto;html=1;entryX=0.25;entryY=0;entryDx=0;entryDy=0;fontSize=12;startSize=8;endSize=8;" edge="1" parent="1" source="4BoSZYrvSGnBMVPtdNcZ-46" target="4BoSZYrvSGnBMVPtdNcZ-40">
          <mxGeometry relative="1" as="geometry">
            <Array as="points">
              <mxPoint x="-690" y="60" />
            </Array>
          </mxGeometry>
        </mxCell>
        <mxCell id="4BoSZYrvSGnBMVPtdNcZ-51" value="cAdvisor exporter" style="edgeLabel;html=1;align=center;verticalAlign=middle;resizable=0;points=[];fontSize=12;rotation=35;" vertex="1" connectable="0" parent="4BoSZYrvSGnBMVPtdNcZ-50">
          <mxGeometry x="0.336" y="-12" relative="1" as="geometry">
            <mxPoint x="-6" y="-26" as="offset" />
          </mxGeometry>
        </mxCell>
        <mxCell id="4BoSZYrvSGnBMVPtdNcZ-46" value="" style="shape=image;verticalLabelPosition=bottom;labelBackgroundColor=default;verticalAlign=top;aspect=fixed;imageAspect=0;image=https://www.netdata.cloud/img/cadvisor.png;" vertex="1" parent="1">
          <mxGeometry x="-831.61" y="30.000000000000057" width="21.51" height="23.54" as="geometry" />
        </mxCell>
        <mxCell id="4BoSZYrvSGnBMVPtdNcZ-47" value="" style="shape=image;verticalLabelPosition=bottom;labelBackgroundColor=default;verticalAlign=top;aspect=fixed;imageAspect=0;image=https://www.netdata.cloud/img/cadvisor.png;" vertex="1" parent="1">
          <mxGeometry x="-910.5500000000001" y="30.000000000000057" width="21.51" height="23.54" as="geometry" />
        </mxCell>
        <mxCell id="4BoSZYrvSGnBMVPtdNcZ-48" value="" style="shape=image;verticalLabelPosition=bottom;labelBackgroundColor=default;verticalAlign=top;aspect=fixed;imageAspect=0;image=https://www.netdata.cloud/img/cadvisor.png;" vertex="1" parent="1">
          <mxGeometry x="-987.9000000000001" y="30.30000000000001" width="21.51" height="23.54" as="geometry" />
        </mxCell>
        <mxCell id="4BoSZYrvSGnBMVPtdNcZ-58" value="" style="curved=1;endArrow=classic;html=1;rounded=0;fontSize=12;startSize=8;endSize=8;exitX=0;exitY=0.5;exitDx=0;exitDy=0;entryX=1;entryY=0;entryDx=0;entryDy=0;" edge="1" parent="1" source="4BoSZYrvSGnBMVPtdNcZ-54" target="4BoSZYrvSGnBMVPtdNcZ-40">
          <mxGeometry width="50" height="50" relative="1" as="geometry">
            <mxPoint x="-500" y="118.83999999999997" as="sourcePoint" />
            <mxPoint x="-450" y="68.83999999999997" as="targetPoint" />
            <Array as="points">
              <mxPoint x="-460" y="100" />
            </Array>
          </mxGeometry>
        </mxCell>
        <mxCell id="4BoSZYrvSGnBMVPtdNcZ-59" value="prometheus/grafana" style="edgeLabel;html=1;align=center;verticalAlign=middle;resizable=0;points=[];fontSize=12;rotation=-30;" vertex="1" connectable="0" parent="4BoSZYrvSGnBMVPtdNcZ-58">
          <mxGeometry x="-0.0277" y="5" relative="1" as="geometry">
            <mxPoint x="-10" y="-6" as="offset" />
          </mxGeometry>
        </mxCell>
        <mxCell id="4BoSZYrvSGnBMVPtdNcZ-62" value="" style="curved=1;endArrow=classic;html=1;rounded=0;fontSize=12;startSize=8;endSize=8;exitX=1;exitY=0.25;exitDx=0;exitDy=0;entryX=0;entryY=0.5;entryDx=0;entryDy=0;dashed=1;" edge="1" parent="1" source="4BoSZYrvSGnBMVPtdNcZ-40" target="4BoSZYrvSGnBMVPtdNcZ-44">
          <mxGeometry width="50" height="50" relative="1" as="geometry">
            <mxPoint x="-460" y="238.83999999999997" as="sourcePoint" />
            <mxPoint x="-410" y="188.83999999999997" as="targetPoint" />
            <Array as="points">
              <mxPoint x="-470" y="178.83999999999997" />
              <mxPoint x="-330" y="208.83999999999997" />
            </Array>
          </mxGeometry>
        </mxCell>
        <mxCell id="4BoSZYrvSGnBMVPtdNcZ-66" value="monitor elasticsearch cluster" style="edgeLabel;html=1;align=center;verticalAlign=middle;resizable=0;points=[];fontSize=12;rotation=15;" vertex="1" connectable="0" parent="4BoSZYrvSGnBMVPtdNcZ-62">
          <mxGeometry x="-0.1509" y="3" relative="1" as="geometry">
            <mxPoint x="33" y="-5" as="offset" />
          </mxGeometry>
        </mxCell>
        <mxCell id="4BoSZYrvSGnBMVPtdNcZ-63" value="" style="curved=1;endArrow=classic;html=1;rounded=0;fontSize=12;startSize=8;endSize=8;exitX=1;exitY=0.5;exitDx=0;exitDy=0;entryX=0;entryY=0.75;entryDx=0;entryDy=0;" edge="1" parent="1" source="4BoSZYrvSGnBMVPtdNcZ-40" target="4BoSZYrvSGnBMVPtdNcZ-44">
          <mxGeometry width="50" height="50" relative="1" as="geometry">
            <mxPoint x="-350" y="388.84" as="sourcePoint" />
            <mxPoint x="-300" y="338.84" as="targetPoint" />
            <Array as="points">
              <mxPoint x="-430" y="300" />
            </Array>
          </mxGeometry>
        </mxCell>
        <mxCell id="4BoSZYrvSGnBMVPtdNcZ-67" value="monitor docker" style="edgeLabel;html=1;align=center;verticalAlign=middle;resizable=0;points=[];fontSize=12;rotation=15;" vertex="1" connectable="0" parent="4BoSZYrvSGnBMVPtdNcZ-63">
          <mxGeometry x="0.0086" y="19" relative="1" as="geometry">
            <mxPoint x="-15" y="18" as="offset" />
          </mxGeometry>
        </mxCell>
        <mxCell id="4BoSZYrvSGnBMVPtdNcZ-64" value="" style="group" vertex="1" connectable="0" parent="1">
          <mxGeometry x="-340" y="53.839999999999975" width="171.63" height="60" as="geometry" />
        </mxCell>
        <mxCell id="4BoSZYrvSGnBMVPtdNcZ-54" value="" style="rounded=1;whiteSpace=wrap;html=1;dashed=1;" vertex="1" parent="4BoSZYrvSGnBMVPtdNcZ-64">
          <mxGeometry width="171.63" height="60" as="geometry" />
        </mxCell>
        <mxCell id="4BoSZYrvSGnBMVPtdNcZ-61" value="" style="shape=image;verticalLabelPosition=bottom;labelBackgroundColor=default;verticalAlign=top;aspect=fixed;imageAspect=0;image=https://cdn-icons-png.flaticon.com/512/2111/2111615.png;sketch=1;curveFitting=1;jiggle=2;" vertex="1" parent="4BoSZYrvSGnBMVPtdNcZ-64">
          <mxGeometry x="117.56" y="8.5" width="40.5" height="40.5" as="geometry" />
        </mxCell>
        <mxCell id="4BoSZYrvSGnBMVPtdNcZ-52" value="" style="shape=image;verticalLabelPosition=bottom;labelBackgroundColor=default;verticalAlign=top;aspect=fixed;imageAspect=0;image=https://www.svgrepo.com/show/354219/prometheus.svg;sketch=1;curveFitting=1;jiggle=2;" vertex="1" parent="4BoSZYrvSGnBMVPtdNcZ-64">
          <mxGeometry x="13.56583333333333" y="13" width="36" height="36" as="geometry" />
        </mxCell>
        <mxCell id="4BoSZYrvSGnBMVPtdNcZ-53" value="" style="shape=image;verticalLabelPosition=bottom;labelBackgroundColor=default;verticalAlign=top;aspect=fixed;imageAspect=0;image=https://cdn.iconscout.com/icon/free/png-256/free-grafana-logo-icon-download-in-svg-png-gif-file-formats--technology-social-media-company-vol-3-pack-logos-icons-3030088.png;sketch=1;curveFitting=1;jiggle=2;" vertex="1" parent="4BoSZYrvSGnBMVPtdNcZ-64">
          <mxGeometry x="65.24290333333335" y="10.5" width="41" height="41" as="geometry" />
        </mxCell>
        <mxCell id="4BoSZYrvSGnBMVPtdNcZ-68" value="" style="endArrow=classic;html=1;rounded=0;fontSize=12;startSize=8;endSize=8;curved=1;" edge="1" parent="1">
          <mxGeometry width="50" height="50" relative="1" as="geometry">
            <mxPoint x="-640" y="350" as="sourcePoint" />
            <mxPoint x="-560" y="350" as="targetPoint" />
          </mxGeometry>
        </mxCell>
        <mxCell id="4BoSZYrvSGnBMVPtdNcZ-69" value="" style="endArrow=classic;html=1;rounded=0;fontSize=12;startSize=8;endSize=8;curved=1;dashed=1;" edge="1" parent="1">
          <mxGeometry width="50" height="50" relative="1" as="geometry">
            <mxPoint x="-640" y="383" as="sourcePoint" />
            <mxPoint x="-560" y="383" as="targetPoint" />
          </mxGeometry>
        </mxCell>
        <mxCell id="4BoSZYrvSGnBMVPtdNcZ-71" value="CAvisor docker exporter to prometheus, grafana, slack" style="text;html=1;align=left;verticalAlign=middle;whiteSpace=wrap;rounded=0;fontSize=10;" vertex="1" parent="1">
          <mxGeometry x="-550" y="336" width="250" height="30" as="geometry" />
        </mxCell>
        <mxCell id="4BoSZYrvSGnBMVPtdNcZ-72" value="metricbeat elasticsearch, metribeat logstash, filebeat elasticsearch to monitoring-observer-02 cluster" style="text;html=1;align=left;verticalAlign=middle;whiteSpace=wrap;rounded=0;fontSize=10;" vertex="1" parent="1">
          <mxGeometry x="-550" y="366" width="250" height="30" as="geometry" />
        </mxCell>
      </root>
    </mxGraphModel>
  </diagram>
</mxfile>
